<svg xmlns="http://www.w3.org/2000/svg" viewBox="0 0 162.84 160"><defs><style>.cls-1{fill:#feb83f;}</style></defs><title>Asset 8</title><g id="Layer_2" data-name="Layer 2"><g id="Layer_1-2" data-name="Layer 1"><path class="cls-1" d="M69.84,7,89.76,41.5,69.84,76H30L10.08,41.5,30,7H69.84m4-7H26L2,41.5,26,83H73.88l24-41.5L73.88,0Z"/><path class="cls-1" d="M134.84,48l19.92,34.5L134.84,117H95L75.08,82.5,95,48h39.84m4-7H91L67,82.5,91,124h47.92l24-41.5-24-41.5Z"/><path class="cls-1" d="M67.84,84l19.92,34.5L67.84,153H28L8.08,118.5,28,84H67.84m4-7H24L0,118.5,24,160H71.88l24-41.5L71.88,77Z"/></g></g></svg>