<svg xmlns="http://www.w3.org/2000/svg" viewBox="0 0 197.59 227"><defs><style>.cls-1{fill:#feb83f;}</style></defs><title>Asset 7</title><g id="Layer_2" data-name="Layer 2"><g id="Layer_1-2" data-name="Layer 1"><path class="cls-1" d="M121.38,8.08l34.24,20.36-.51,39.83L120.36,87.75,86.12,67.39l.51-39.83L121.38,8.08m.1-8.08L79.68,23.43l-.61,47.91,41.19,24.49,41.8-23.43.61-47.91L121.48,0Z"/><path class="cls-1" d="M156.3,76.54,190.54,96.9,190,136.73l-34.75,19.48L121,135.85,121.55,96,156.3,76.54m.1-8.08L114.6,91.89,114,139.8l41.19,24.49L197,140.86,197.59,93,156.4,68.46Z"/><path class="cls-1" d="M80.31,73.25,114.55,93.6l-.5,39.84L79.29,152.91,45.05,132.56l.51-39.84L80.31,73.25m.11-8.09L38.61,88.59,38,136.51,79.19,161,121,137.57l.62-47.92L80.42,65.16Z"/><path class="cls-1" d="M42.31,139.25,76.55,159.6l-.5,39.84L41.29,218.91,7.05,198.56l.51-39.84,34.75-19.47m.11-8.09L.61,154.59,0,202.51,41.19,227,83,203.57l.62-47.92L42.42,131.16Z"/></g></g></svg>